{"title":"Do Dilon Ke Khel Mein (2010) 1/3 DVD Rip Xvid AC3 E-Subs [Tikris","uid":5631789,"size":1533573932,"categoryP":"video","categoryS":"movies","magnet":"?xt=urn:btih:245f4867b2aa16a3e25fd57b1f674e9b0b5d9f32&amp;dn=Do+Dilon+Ke+Khel+Mein+%282010%29+1%2F3+DVD+Rip+Xvid+AC3+E-Subs+%5BTikris&amp;tr=udp%3A%2F%2Ftracker.openbittorrent.com%3A80&amp;tr=udp%3A%2F%2Fopen.demonii.com%3A1337&amp;tr=udp%3A%2F%2Ftracker.coppersurfer.tk%3A6969&amp;tr=udp%3A%2F%2Fexodus.desync.com%3A6969","seeders":0,"leechers":1,"uploader":"luvwithromio","files":3,"time":1276714122,"description":"Format                           : AVI\nFormat/Info                      : Audio Video Interleave\nFile size                        : 1.42 GiB\nDuration                         : 2h 6mn\nOverall bit rate                 : 1 615 Kbps\n\nVideo\nID                               : 0\nFormat                           : MPEG-4 Visual\nFormat profile                   : Advanced Simple@L5\nFormat settings, BVOP            : Yes\nFormat settings, QPel            : No\nFormat settings, GMC             : No warppoints\nFormat settings, Matrix          : Default (H.263)\nCodec ID                         : XVID\nCodec ID/Hint                    : XviD\nDuration                         : 2h 6mn\nBit rate                         : 1 413 Kbps\nWidth                            : 672 pixels\nHeight                           : 288 pixels\nDisplay aspect ratio             : 2.35:1\nFrame rate                       : 23.976 fps\nResolution                       : 8 bits\nColorimetry                      : 4:2:0\nScan type                        : Progressive\nBits/(Pixel*Frame)               : 0.304\nStream size                      : 1.25 GiB (87%)\nWriting library                  : XviD 1.1.2 (UTC 2006-11-01)\n\nAudio\nID                               : 1\nFormat                           : AC-3\nFormat/Info                      : Audio Coding 3\nFormat_Settings_ModeExtension    : CM (complete main)\nCodec ID                         : 2000\nDuration                         : 2h 6mn\nBit rate mode                    : Constant\nBit rate                         : 192 Kbps\nChannel(s)                       : 6 channels\nChannel positions                : Front: L C R, Side: L R, LFE\nSampling rate                    : 48.0 KHz\nResolution                       : 16 bits\nStream size                      : 173 MiB (12%)\nAlignment                        : Aligned on interleaves\nInterleave, duration             : 32 ms (0.77 video frame)","torrent":{"xt":"urn:btih:245f4867b2aa16a3e25fd57b1f674e9b0b5d9f32","amp;dn":"Do+Dilon+Ke+Khel+Mein+%282010%29+1%2F3+DVD+Rip+Xvid+AC3+E-Subs+%5BTikris","amp;tr":["udp%3A%2F%2Ftracker.openbittorrent.com%3A80","udp%3A%2F%2Fopen.demonii.com%3A1337","udp%3A%2F%2Ftracker.coppersurfer.tk%3A6969","udp%3A%2F%2Fexodus.desync.com%3A6969"],"infoHash":"245f4867b2aa16a3e25fd57b1f674e9b0b5d9f32","infoHashBuffer":{"type":"Buffer","data":[36,95,72,103,178,170,22,163,226,95,213,123,31,103,78,155,11,93,159,50]},"announce":[],"urlList":[]}}